# xmcd CD database file
#
# Track frame offsets:
#	150
#	12456
#	30364
#	39646
#	50811
#	57407
#	74836
#	80142
#	90767
#	103244
#	109664
#	117514
#	125129
#	137827
#	154353
#	167201
#	175902
#	187808
#	198141
#	202675
#	207007
#	218366
#	230029
#	242300
#	257413
#
# Disc length: 3527 seconds
#
# Revision: 0
# Processed by: cddbd v1.5.2PL0 Copyright (c) Steve Scherf et al.
# Submitted via: CDex 1.70beta2
#
DISCID=600dc519
DTITLE=Phil d'Gi - Musique de rue
DYEAR=1999
DGENRE=Jazz
TTITLE0=Sweet Georgia Brown
TTITLE1=Girl from Ipanema
TTITLE2=Petite Fleur
TTITLE3=New York New York
TTITLE4=Medley: Passe-Partout/Frère Jacques
TTITLE5=HUGH
TTITLE6=Ah vous dirais-je maman
TTITLE7=Ave Maria
TTITLE8=Für Elise
TTITLE9=Ah si mon moine voulait danser
TTITLE10=La Mer
TTITLE11=Five Foot Two
TTITLE12=Les Feuilles Mortes
TTITLE13=One Note Samba
TTITLE14=Take Five
TTITLE15=Muskrat Ramble
TTITLE16=Summertime
TTITLE17=Medley: Tea for Two/ Cherry Pink
TTITLE18=La Raspa
TTITLE19=Medley: Schtroumphs/ Ferme à Maturin
TTITLE20=Clarinet Polka
TTITLE21=All of Me
TTITLE22=Quiet Nights
TTITLE23=Soleil Levant
TTITLE24=Oh whent the Saints
EXTD=YEAR: 1999
EXTT0=
EXTT1=
EXTT2=
EXTT3=
EXTT4=
EXTT5=
EXTT6=
EXTT7=
EXTT8=
EXTT9=
EXTT10=
EXTT11=
EXTT12=
EXTT13=
EXTT14=
EXTT15=
EXTT16=
EXTT17=
EXTT18=
EXTT19=
EXTT20=
EXTT21=
EXTT22=
EXTT23=
EXTT24=
PLAYORDER=
